<mxfile host="app.diagrams.net" modified="2023-07-11T11:48:30.622Z" agent="Mozilla/5.0 (Windows NT 10.0; Win64; x64) AppleWebKit/537.36 (KHTML, like Gecko) Chrome/114.0.0.0 Safari/537.36" etag="0zQL491caNFiV798MRR7" version="21.6.1" type="github">
  <diagram name="Page-1" id="u4mKCXUjXdRObuG8sSVQ">
    <mxGraphModel dx="2200" dy="1068" grid="1" gridSize="10" guides="1" tooltips="1" connect="1" arrows="1" fold="1" page="1" pageScale="1" pageWidth="850" pageHeight="1100" math="0" shadow="0">
      <root>
        <mxCell id="0" />
        <mxCell id="1" parent="0" />
        <mxCell id="zNZKR07Lyu3Vpi42-jQx-65" style="edgeStyle=orthogonalEdgeStyle;rounded=0;orthogonalLoop=1;jettySize=auto;html=1;entryX=0.5;entryY=0;entryDx=0;entryDy=0;" edge="1" parent="1" source="zNZKR07Lyu3Vpi42-jQx-67" target="zNZKR07Lyu3Vpi42-jQx-70">
          <mxGeometry relative="1" as="geometry" />
        </mxCell>
        <mxCell id="zNZKR07Lyu3Vpi42-jQx-66" value="&lt;font style=&quot;font-size: 20px;&quot;&gt;Call Service&lt;/font&gt;" style="edgeLabel;html=1;align=center;verticalAlign=middle;resizable=0;points=[];" vertex="1" connectable="0" parent="zNZKR07Lyu3Vpi42-jQx-65">
          <mxGeometry x="-0.0916" y="2" relative="1" as="geometry">
            <mxPoint as="offset" />
          </mxGeometry>
        </mxCell>
        <mxCell id="zNZKR07Lyu3Vpi42-jQx-67" value="&lt;font style=&quot;font-size: 20px;&quot;&gt;UI&lt;br&gt;(SAP HANA DB)&lt;br&gt;&lt;/font&gt;" style="rounded=0;whiteSpace=wrap;html=1;" vertex="1" parent="1">
          <mxGeometry x="120" y="41" width="200" height="119" as="geometry" />
        </mxCell>
        <mxCell id="zNZKR07Lyu3Vpi42-jQx-68" style="edgeStyle=orthogonalEdgeStyle;rounded=0;orthogonalLoop=1;jettySize=auto;html=1;entryX=0;entryY=0.5;entryDx=0;entryDy=0;" edge="1" parent="1" source="zNZKR07Lyu3Vpi42-jQx-70" target="zNZKR07Lyu3Vpi42-jQx-71">
          <mxGeometry relative="1" as="geometry" />
        </mxCell>
        <mxCell id="zNZKR07Lyu3Vpi42-jQx-69" value="&lt;font style=&quot;font-size: 20px;&quot;&gt;DB Data&lt;/font&gt;" style="edgeLabel;html=1;align=center;verticalAlign=middle;resizable=0;points=[];" vertex="1" connectable="0" parent="zNZKR07Lyu3Vpi42-jQx-68">
          <mxGeometry x="-0.3318" y="-6" relative="1" as="geometry">
            <mxPoint y="1" as="offset" />
          </mxGeometry>
        </mxCell>
        <mxCell id="zNZKR07Lyu3Vpi42-jQx-75" style="edgeStyle=orthogonalEdgeStyle;rounded=0;orthogonalLoop=1;jettySize=auto;html=1;entryX=0;entryY=0.5;entryDx=0;entryDy=0;" edge="1" parent="1" source="zNZKR07Lyu3Vpi42-jQx-70" target="zNZKR07Lyu3Vpi42-jQx-72">
          <mxGeometry relative="1" as="geometry" />
        </mxCell>
        <mxCell id="zNZKR07Lyu3Vpi42-jQx-109" value="&lt;font style=&quot;font-size: 20px;&quot;&gt;Get Details&lt;/font&gt;" style="edgeLabel;html=1;align=center;verticalAlign=middle;resizable=0;points=[];" vertex="1" connectable="0" parent="zNZKR07Lyu3Vpi42-jQx-75">
          <mxGeometry x="-0.1514" relative="1" as="geometry">
            <mxPoint as="offset" />
          </mxGeometry>
        </mxCell>
        <mxCell id="zNZKR07Lyu3Vpi42-jQx-70" value="&lt;span style=&quot;font-size: 20px;&quot;&gt;Microservices&lt;/span&gt;" style="rounded=0;whiteSpace=wrap;html=1;" vertex="1" parent="1">
          <mxGeometry x="121" y="280.25" width="199" height="119.75" as="geometry" />
        </mxCell>
        <mxCell id="zNZKR07Lyu3Vpi42-jQx-71" value="&lt;font style=&quot;font-size: 20px;&quot;&gt;Log&lt;br&gt;&lt;/font&gt;" style="rounded=0;whiteSpace=wrap;html=1;" vertex="1" parent="1">
          <mxGeometry x="295" y="481" width="240" height="119" as="geometry" />
        </mxCell>
        <mxCell id="zNZKR07Lyu3Vpi42-jQx-79" style="edgeStyle=orthogonalEdgeStyle;rounded=0;orthogonalLoop=1;jettySize=auto;html=1;entryX=0;entryY=0.5;entryDx=0;entryDy=0;" edge="1" parent="1" source="zNZKR07Lyu3Vpi42-jQx-72" target="zNZKR07Lyu3Vpi42-jQx-77">
          <mxGeometry relative="1" as="geometry" />
        </mxCell>
        <mxCell id="zNZKR07Lyu3Vpi42-jQx-80" value="&lt;font style=&quot;font-size: 20px;&quot;&gt;Exporter&lt;/font&gt;" style="edgeLabel;html=1;align=center;verticalAlign=middle;resizable=0;points=[];" vertex="1" connectable="0" parent="zNZKR07Lyu3Vpi42-jQx-79">
          <mxGeometry x="-0.3006" relative="1" as="geometry">
            <mxPoint as="offset" />
          </mxGeometry>
        </mxCell>
        <mxCell id="zNZKR07Lyu3Vpi42-jQx-72" value="" style="rounded=0;whiteSpace=wrap;html=1;" vertex="1" parent="1">
          <mxGeometry x="520" y="280" width="280" height="120" as="geometry" />
        </mxCell>
        <mxCell id="zNZKR07Lyu3Vpi42-jQx-73" value="" style="image;sketch=0;aspect=fixed;html=1;points=[];align=center;fontSize=12;image=img/lib/mscae/SAP_HANA_on_Azure.svg;" vertex="1" parent="1">
          <mxGeometry x="524" y="285.13" width="95" height="47.5" as="geometry" />
        </mxCell>
        <mxCell id="zNZKR07Lyu3Vpi42-jQx-74" value="&lt;font style=&quot;font-size: 20px;&quot;&gt;SAP HANA DB&lt;/font&gt;" style="text;html=1;strokeColor=none;fillColor=none;align=center;verticalAlign=middle;whiteSpace=wrap;rounded=0;" vertex="1" parent="1">
          <mxGeometry x="617" y="312.62" width="172" height="55" as="geometry" />
        </mxCell>
        <mxCell id="zNZKR07Lyu3Vpi42-jQx-77" value="" style="rounded=0;whiteSpace=wrap;html=1;" vertex="1" parent="1">
          <mxGeometry x="720" y="41" width="210" height="119" as="geometry" />
        </mxCell>
        <mxCell id="zNZKR07Lyu3Vpi42-jQx-76" value="" style="shape=image;verticalLabelPosition=bottom;labelBackgroundColor=default;verticalAlign=top;aspect=fixed;imageAspect=0;image=data:image/png,iVBORw0KGgoAAAANSUhEUgAAAHwAAAB7CAMAAACBxRQ0AAAAb1BMVEX////mUizlTCHsgm3tkoHmTiXmUCnqb1blSh7lRhbkPQDlSBvkOQD1xLzlRBDrf2r87ev++Pf75uL64Nz529b98/H41M7nXj72ycHxqZznWjjzuK3ysabtjnzqeWLwpJboZ0rvmovsiHXjLgDqdVv9QTgMAAAHjElEQVRogbVb14KrIBBVIihqiCWWmF7+/xsXS2xhGMya85R7VzzOMB21rC+RJeleIk2i+NtbLEeclqfzzaaEeIGE5xFqF49Duc9+TJztT5eCCeFRxuwBjBIuSOFe8+hnzOWj8AUds07AKPer3fEX/PmZ+AQkHh5A+JvtuszxgfoEI36D+uKerEadOH6glpkBqvD8V74O9cYLABlFdYM2gvAV6KO75wH3Z+Ka7SiofcI3/1T+0ebg3fnRSmDuml5c/xF/EteH7VscLGsrdOT1vnyt+8NTIxi5yCuusF5asPDxlfDJSyuWSE3IpeGzdDl3aUOG1gr+qC86ImqvQcVpKfdBaG3JDpvNzCEnnEA4y1R/9vX3Y3ZzWVahAbdhfy3JeBdMncRpL9xMgy6kLc82Zo9vqDaljzfIxxpiDIw5VBgGnOymNbUGfv6+dqR3kRbgLlBqZPSxAbcdvgUZORs/ZprdorYJu2vAbYfvkiHp9S6jTqlze1rhmt/BN/BEr9WwN6B+m4PUOmpjDqkwj3NgHwv2efBmevb3KbsFddQ56Q2V3PTcJ41/B47MYp3sz2FJV1v5ewuRXFrFWced6/ab3oY0xoc192YNdaUutlio948wd1bpYmoT1dotpiMFpo2yuEyw1h4N9cEeJN9p96wh34f1TzLWX/PEjfnHKDm9QUa31Qf0Vly3puLjRHWSymbF8BxaCAdQOpJM2ixaU9lBOVqXSkbv3vw0yO9CXdtskOjSips95U9v0pbcqC3aRkFrsC26fDhDiQhuB+0zy/jNqslKKe874t1QvTe13xwxto6x1lYcr/b4MWRq87ufJ4PSxv/s5tBlTcVoNZFElJOlKSWv7mdkUF14H6Ems7FVftf/5YJV02fPCn7tt8BE9Hl+w4vgN2MkvMdssSv6yIULIXW4my6PgU5wtGLzvlZ8eMtl9D9HzG4l+DTOnVAH9ft95u58zx58lKrhaqbHTHVQr9uDFX0GJ1Nzk7jzUdBEXVaCjusKfIE3eNdngDzx8b/wGNumoTc0nW6HUFeBbSdRS1tMdRDD5REqOLtpuK399K8Gvs6HrTugzxpcLQ3Sqe8YhDkymNwL17q28kzu03+i5itv2F+MCs6YjtuKZtURLszguXijG9w/CMeIZ1EH38ahFsIflH+49hSzNjANUXLWFfEGmYgva7BNclvnuzle9hWLuK3YNagp2jIQ9wwPqPpAbPBZKW0T1QW9UmhqfSUcnJy1RTTulQKxtw8YmLvt1aEjwp+SwH2GGkalXO2fBhOlxaM0kxFZs5fYCLMutZdOcE3IGyvGi5jfSN5Uw3e8y1i85yYGR+tq7Iwb3GJrN3A1WZjFRimIL52e4pVRVxWCJxUD5oU2hszgnjK1JEalLiPLyBMDe2t9yOA6my87MDAx9taHTK7z9MXEHAZJTYIakg8llwlSkxmmlnyabhbZuxNo7jQlVxscK2zBh0Nbho4uB0SjI1dGuG8Xaulqg3OV5ME1yg8vm3Cv/bNqmAHgHLx5ObEvhzJRtzBNz31RWgdtW9F069hPP5Aq4KbxfR/ajAb+M9icyjYhnZU20AQZILz6g3flhw17hoaKj7kf2ptDPlwdq3N204Fd1X+bRbWovJvZ3OFezgY+wDi40S00KjY7lzAAMChppIM62mA+efkS0FC16YL2UEgQ64gO5Y5maJmBx1G3NbjBAVHYVChgb6MbzZsigt4uYXZjlw8wFAf/f+3kAdXG9NU4I5wAvYVFxCfgg4+uRwYtTip+8enzFAn8Sk83JI81tczCKmKOAk7s7yG5pqdk9D+vW11gnfaHLboR4NLWfAxHU031tVGkmxR77uZLXHRNYNjvp7aXp+RLaM/ohoEpcqb1A4wqUiDj/hBi1P3peqtfqH1ixgk8OKMX50s8YImmQx64zMfmfzAyUCJWTaJHCbok//qlwggk57MZNphXf0DO2CxbgpOZH5Dzj84POs1cn1yRL6BdX59c1fwAMXZ1cmYrug9gnLA6ua/0XfUZ7Nrk5OM8soWy7lg5yDCoKDU4nVgEVeiAp+fqwSH7Fop7cU0Ppim6VgEtNCWh/hUhGR5Q6Id6oXaIu9fVNKxyMby0I8UQ8ZxSY3RE+1JXC928WaDTvJOmrgBcdAwHthqdsb1xh6ttjq9Wj5eaxRd8tXx4UHN6e6kBnyUGL7OBEvgqIn64B3a8gWs6RbyCZQDWsEOC8xeycATI6j5ez5kBsnWxaLi05WrD0R9spmqlM6F96eETeaWeWXqahj1Tz5eptzgrR+oX+xnwJp9Eoo7NXvXNSO3wVAoSAqOSMlBxM3+jvhxDUimF912Fu0c75YcfAfu6FrGugWrnabCb6T69c1X5SX3nP1OVZKf8toGI271MMhk34izaX12i6rGZuP33C6KyUNKzwOeFe3m5N+Ir3ZLxaoUBprWtgC87GFw9MM4PK326WLoh/p3cCMS315D6jcShBt/pNaBCbL43cTWy7Y6h/IyK4HX6yVeSUbkpPOFBM2wiRHU5rveB4Afi/fFREY/zgHS2xhht/23vTvmvP0216q9Ty+P1vHOLSpJLf3vcT9vvPon9AxIEckgDXBrBAAAAAElFTkSuQmCC;" vertex="1" parent="1">
          <mxGeometry x="725" y="44" width="56.46" height="56" as="geometry" />
        </mxCell>
        <mxCell id="zNZKR07Lyu3Vpi42-jQx-78" value="&lt;font style=&quot;font-size: 20px;&quot;&gt;Prometheus&lt;/font&gt;" style="text;html=1;strokeColor=none;fillColor=none;align=center;verticalAlign=middle;whiteSpace=wrap;rounded=0;" vertex="1" parent="1">
          <mxGeometry x="789" y="90" width="130" height="30" as="geometry" />
        </mxCell>
        <mxCell id="zNZKR07Lyu3Vpi42-jQx-84" value="" style="rounded=0;whiteSpace=wrap;html=1;" vertex="1" parent="1">
          <mxGeometry x="260" y="640" width="940" height="220" as="geometry" />
        </mxCell>
        <mxCell id="zNZKR07Lyu3Vpi42-jQx-85" value="&lt;font style=&quot;&quot;&gt;&lt;br&gt;&lt;/font&gt;" style="rounded=0;whiteSpace=wrap;html=1;" vertex="1" parent="1">
          <mxGeometry x="270" y="719" width="290" height="120" as="geometry" />
        </mxCell>
        <mxCell id="zNZKR07Lyu3Vpi42-jQx-119" style="edgeStyle=orthogonalEdgeStyle;rounded=0;orthogonalLoop=1;jettySize=auto;html=1;exitX=0.75;exitY=1;exitDx=0;exitDy=0;entryX=1;entryY=0.5;entryDx=0;entryDy=0;" edge="1" parent="1" source="zNZKR07Lyu3Vpi42-jQx-86" target="zNZKR07Lyu3Vpi42-jQx-113">
          <mxGeometry relative="1" as="geometry" />
        </mxCell>
        <mxCell id="zNZKR07Lyu3Vpi42-jQx-86" value="&lt;font style=&quot;&quot;&gt;&lt;br&gt;&lt;/font&gt;" style="rounded=0;whiteSpace=wrap;html=1;" vertex="1" parent="1">
          <mxGeometry x="610" y="719" width="270" height="120" as="geometry" />
        </mxCell>
        <mxCell id="zNZKR07Lyu3Vpi42-jQx-112" style="edgeStyle=orthogonalEdgeStyle;rounded=0;orthogonalLoop=1;jettySize=auto;html=1;exitX=0.5;exitY=1;exitDx=0;exitDy=0;entryX=0.5;entryY=0;entryDx=0;entryDy=0;" edge="1" parent="1" source="zNZKR07Lyu3Vpi42-jQx-87" target="zNZKR07Lyu3Vpi42-jQx-101">
          <mxGeometry relative="1" as="geometry" />
        </mxCell>
        <mxCell id="zNZKR07Lyu3Vpi42-jQx-122" value="&lt;font style=&quot;font-size: 20px;&quot;&gt;Ticket&lt;/font&gt;" style="edgeLabel;html=1;align=center;verticalAlign=middle;resizable=0;points=[];" vertex="1" connectable="0" parent="zNZKR07Lyu3Vpi42-jQx-112">
          <mxGeometry x="0.2407" y="1" relative="1" as="geometry">
            <mxPoint as="offset" />
          </mxGeometry>
        </mxCell>
        <mxCell id="zNZKR07Lyu3Vpi42-jQx-87" value="&lt;font style=&quot;&quot;&gt;&lt;font style=&quot;font-size: 20px;&quot;&gt;Grafana Alert&lt;/font&gt;&lt;br&gt;&lt;/font&gt;" style="rounded=0;whiteSpace=wrap;html=1;" vertex="1" parent="1">
          <mxGeometry x="930" y="719" width="260" height="120" as="geometry" />
        </mxCell>
        <mxCell id="zNZKR07Lyu3Vpi42-jQx-88" style="edgeStyle=orthogonalEdgeStyle;rounded=0;orthogonalLoop=1;jettySize=auto;html=1;" edge="1" parent="1" source="zNZKR07Lyu3Vpi42-jQx-71" target="zNZKR07Lyu3Vpi42-jQx-85">
          <mxGeometry relative="1" as="geometry" />
        </mxCell>
        <mxCell id="zNZKR07Lyu3Vpi42-jQx-101" value="" style="rounded=0;whiteSpace=wrap;html=1;" vertex="1" parent="1">
          <mxGeometry x="944.5" y="960" width="231" height="120" as="geometry" />
        </mxCell>
        <mxCell id="zNZKR07Lyu3Vpi42-jQx-104" value="" style="shape=image;verticalLabelPosition=bottom;labelBackgroundColor=default;verticalAlign=top;aspect=fixed;imageAspect=0;image=data:image/svg+xml,PHN2ZyB4bWxucz0iaHR0cDovL3d3dy53My5vcmcvMjAwMC9zdmciIHdpZHRoPSIyNTAwIiB2aWV3Qm94PSIuMyAuNSAxMzEuNCAxOS41IiBoZWlnaHQ9IjM2MiI+PGcgZmlsbC1ydWxlPSJldmVub2RkIiBjbGlwLXJ1bGU9ImV2ZW5vZGQiPjxwYXRoIGZpbGw9IiMyOTNlNDAiIGQ9Im0zMS45IDYuNGMtMS40IDAtMi42LjUtMy42IDEuM3YtMS4xaC0zLjR2MTIuOWgzLjV2LTguMmMuNS0uNyAxLjctMS42IDMuMi0xLjYuNSAwIDEgLjEgMS40LjJ2LTMuM2MtLjQtLjEtLjgtLjItMS4xLS4ybS0zMCA5LjFjLjkuOCAyLjMgMS4zIDMuNSAxLjMuOSAwIDEuNy0uNSAxLjctMS4xIDAtMi02LjMtMS4zLTYuMy01LjQgMC0yLjUgMi40LTQgNC45LTQgMS43IDAgMy41LjYgNC40IDEuM2wtMS42IDIuNWMtLjctLjQtMS41LS45LTIuNS0uOXMtMS43LjQtMS43IDEuMWMwIDEuNyA2LjMgMSA2LjMgNS41IDAgMi41LTIuNCA0LTUuMSA0LTEuOCAwLTMuNy0uNi01LjItMS43em0yMS41LTIuNmMwLTMuNi0yLjUtNi42LTYuMS02LjYtMy44IDAtNi4zIDMuMi02LjMgNi43IDAgNC4xIDIuOSA2LjcgNi43IDYuNyAyIDAgNC0uOCA1LjMtMi4zbC0yLTJjLS42LjctMS44IDEuNS0zLjIgMS41LTEuOCAwLTMuMy0xLjMtMy41LTMuMWg4LjljLjItLjIuMi0uNS4yLS45em0tOC44LTEuNWMuMi0xLjIgMS40LTIuMyAyLjgtMi4zczIuNCAxLjEgMi42IDIuM3ptMjYuNCAzLjEgMy41LTcuOWgzLjZsLTUuOSAxMi45aC0yLjRsLTUuOC0xMi45aDMuNXptMTAtMTRjMS4zIDAgMi4zIDEgMi4zIDIuMiAwIDEuMy0xIDIuMi0yLjMgMi4ycy0yLjItMS0yLjItMi4yYzAtMS4zLjktMi4yIDIuMi0yLjJtLTEuNyA2LjFoMy41djEyLjloLTMuNXptMTcuNiAxMC4yYy0xLjUgMi0zLjQgMi45LTUuOCAyLjktNCAwLTYuOS0zLTYuOS02LjcgMC0zLjggMy02LjcgNi45LTYuNyAyLjMgMCA0LjIgMS4xIDUuNCAyLjZsLTIuMiAyLjFjLS43LS45LTEuNy0xLjUtMi45LTEuNS0yIDAtMy41IDEuNi0zLjUgMy41IDAgMiAxLjQgMy41IDMuNSAzLjUgMS40IDAgMi41LS44IDMuMS0xLjd6bTEyLjUuNmMtMS4zIDEuNS0zLjMgMi4zLTUuMyAyLjMtMy44IDAtNi43LTIuNi02LjctNi43IDAtMy42IDIuNC02LjcgNi4zLTYuNyAzLjUgMCA2LjEgMyA2LjEgNi42IDAgLjQgMCAuNy0uMSAxaC05Yy4yIDEuOCAxLjcgMy4xIDMuNSAzLjEgMS40IDAgMi42LS44IDMuMi0xLjV6bS0zLjItNmMtLjEtMS4xLTEuMS0yLjMtMi42LTIuMy0xLjQgMC0yLjYgMS4xLTIuOCAyLjN6bTQuOSA4LjF2LTEyLjloMy4zdjEuMWMxLS44IDIuMi0xLjMgMy42LTEuMyAxLjggMCAzLjQuOCA0LjUgMi4xLjggMSAxLjQgMi4zIDEuNCA0LjV2Ni42aC0zLjV2LTYuOWMwLTEuMy0uMy0yLS44LTIuNC0uNS0uNS0xLjEtLjgtMi0uOC0xLjQgMC0yLjYuOS0zLjIgMS42djguNHoiLz48cGF0aCBmaWxsPSIjODFiNWExIiBkPSJtMTAyLjcgNi4zYy00LjIgMC03LjUgMy4zLTcuNSA3LjUgMCAyLjIuOSA0LjIgMi4zIDUuNi41LjUgMS40LjUgMiAuMS44LS43IDItMS4xIDMuMi0xLjEgMS4zIDAgMi4zLjQgMy4yIDEuMS42LjUgMS40LjQgMi0uMiAxLjQtMS40IDIuMy0zLjMgMi4zLTUuNS0uMS00LjEtMy40LTcuNS03LjUtNy41bS0uMSAxMS40Yy0yLjMgMC0zLjgtMS43LTMuOC0zLjhzMS41LTMuOCAzLjgtMy44IDMuOCAxLjcgMy44IDMuOC0xLjUgMy44LTMuOCAzLjgiLz48cGF0aCBmaWxsPSIjMjkzZTQwIiBkPSJtMTE3IDE5LjVoLTIuNmwtNS4xLTEyLjloMy40bDIuOCA3LjQgMi44LTcuNGgyLjhsMi43IDcuNCAyLjgtNy40aDMuNWwtNS4xIDEyLjloLTIuNmwtMi44LTcuM3oiLz48L2c+PGcgZmlsbD0iIzI5M2U0MCI+PHBhdGggZD0ibTEzMC4xIDE4aC0uM3YuNWgtLjJ2LTEuNWguNmMuMyAwIC40LjIuNC41IDAgLjItLjEuMy0uMi40bC40LjVoLS4zem0tLjMtLjRoLjRjLjIgMCAuMi0uMS4yLS4yIDAtLjItLjEtLjItLjItLjJoLS40eiIvPjxwYXRoIGQ9Im0xMzAuMSAxNi40Yy44IDAgMS40LjYgMS40IDEuNHMtLjYgMS40LTEuNCAxLjQtMS40LS42LTEuNC0xLjQuNy0xLjQgMS40LTEuNG0wLS4yYy0uOSAwLTEuNi44LTEuNiAxLjYgMCAuOS44IDEuNiAxLjYgMS42LjkgMCAxLjYtLjggMS42LTEuNnMtLjgtMS42LTEuNi0xLjZ6Ii8+PC9nPjwvc3ZnPg==;align=center;" vertex="1" parent="1">
          <mxGeometry x="956.55" y="1002" width="206.9" height="30" as="geometry" />
        </mxCell>
        <mxCell id="zNZKR07Lyu3Vpi42-jQx-120" style="edgeStyle=orthogonalEdgeStyle;rounded=0;orthogonalLoop=1;jettySize=auto;html=1;exitX=0.25;exitY=0;exitDx=0;exitDy=0;entryX=0;entryY=0.5;entryDx=0;entryDy=0;" edge="1" parent="1" source="zNZKR07Lyu3Vpi42-jQx-113" target="zNZKR07Lyu3Vpi42-jQx-70">
          <mxGeometry relative="1" as="geometry" />
        </mxCell>
        <mxCell id="zNZKR07Lyu3Vpi42-jQx-121" value="&lt;font style=&quot;font-size: 20px;&quot;&gt;Opentelemetry&amp;nbsp;&lt;br style=&quot;border-color: var(--border-color);&quot;&gt;Java Agent&lt;/font&gt;" style="edgeLabel;html=1;align=center;verticalAlign=middle;resizable=0;points=[];" vertex="1" connectable="0" parent="zNZKR07Lyu3Vpi42-jQx-120">
          <mxGeometry x="-0.0699" relative="1" as="geometry">
            <mxPoint as="offset" />
          </mxGeometry>
        </mxCell>
        <mxCell id="zNZKR07Lyu3Vpi42-jQx-113" value="" style="rounded=0;whiteSpace=wrap;html=1;" vertex="1" parent="1">
          <mxGeometry x="8" y="880" width="280" height="120" as="geometry" />
        </mxCell>
        <mxCell id="zNZKR07Lyu3Vpi42-jQx-117" value="" style="shape=image;verticalLabelPosition=bottom;labelBackgroundColor=default;verticalAlign=top;aspect=fixed;imageAspect=0;image=data:image/svg+xml,PHN2ZyB4bWxucz0iaHR0cDovL3d3dy53My5vcmcvMjAwMC9zdmciIHZpZXdCb3g9IjAgMCAyNCAyNCIgcm9sZT0iaW1nIj48dGl0bGU+T3BlblRlbGVtZXRyeTwvdGl0bGU+PHBhdGggZD0iTTEyLjY5NzQgMTMuMTE3M2MtMS4wMjI0IDEuMDIyNC0xLjAyMjQgMi42OCAwIDMuNzAyNCAxLjAyMjQgMS4wMjI0IDIuNjggMS4wMjI0IDMuNzAyNCAwIDEuMDIyNC0xLjAyMjMgMS4wMjI0LTIuNjggMC0zLjcwMjQtMS4wMjIzLTEuMDIyMy0yLjY4LTEuMDIyMy0zLjcwMjQgMHptMi43Njc3IDIuNzcwMWMtLjUwNjMuNTA2My0xLjMyNjcuNTA2My0xLjgzMyAwcy0uNTA2My0xLjMyNjYgMC0xLjgzM2MuNTA2My0uNTA2MiAxLjMyNjctLjUwNjIgMS44MzMgMCAuNTA2My41MDQuNTA2MyAxLjMyNjcgMCAxLjgzM3pNMTYuMzU2LjIzNTVsLTEuNjA0MSAxLjYwNDJjLS4zMTQuMzE0LS4zMTQuODMgMCAxLjE0NEwyMS4wMTUgOS4yNDdjLjMxNC4zMTQuODMuMzE0IDEuMTQ0IDBsMS42MDQyLTEuNjA0MWMuMzE0LS4zMTQuMzE0LS44MyAwLTEuMTQ0TDE3LjQ5NzYuMjM1NGMtLjMxNC0uMzE0LS44Mjc2LS4zMTQtMS4xNDE2IDB6TTUuMTE3MyAyMC43MzRjLjI4NDgtLjI4NDguMjg0OC0uNzQ5NyAwLTEuMDM0NWwtLjgxNTUtLjgxNTVjLS4yODQ4LS4yODQ4LS43NDk3LS4yODQ4LTEuMDM0NSAwbC0xLjY4NDUgMS42ODQ1LS4wMDI0LjAwMjQtLjQ2MjUtLjQ2MjVjLS4yNTU2LS4yNTU2LS42NzE4LS4yNTU2LS45MjUgMC0uMjU1Ni4yNTU2LS4yNTU2LjY3MTggMCAuOTI1bDIuNzc1IDIuNzc1Yy4yNTU2LjI1NTYuNjcxOC4yNTU2LjkyNSAwIC4yNTMyLS4yNTU2LjI1NTYtLjY3MTggMC0uOTI1bC0uNDYyNS0uNDYyNS4wMDI0LS4wMDI0em04LjQ4NTYtMTUuODkzLTMuNTYzNyAzLjU2MzdjLS4zMTY0LjMxNjQtLjMxNjQuODM3NCAwIDEuMTUzOGwyLjIwMDYgMi4yMDA1YzEuNTU1NC0xLjExOTcgMy43MzY1LS45ODEgNS4xMzYxLjQxODdsMS43ODE5LTEuNzgxOGMuMzE2NC0uMzE2NS4zMTY0LS44Mzc0IDAtMS4xNTM4bC00LjQwMS00LjQwMWMtLjMxNjUtLjMxOS0uODM3NC0uMzE5LTEuMTUzOSAwem0tMi4yODgxIDcuODQ1NS0xLjI5OTktMS4yOTk5Yy0uMzA0My0uMzA0My0uODAzMy0uMzA0My0xLjEwNzYgMGwtNC41ODM2IDQuNTg2Yy0uMzA0Mi4zMDQzLS4zMDQyLjgwMzMgMCAxLjEwNzZsMi41OTczIDIuNTk3M2MuMzA0My4zMDQzLjgwMzMuMzA0MyAxLjEwNzYgMGwyLjk0NzgtMi45NTI3Yy0uNjIzMS0xLjI4NzctLjUxMTItMi44NDMxLjMzODQtNC4wMzgzeiIvPjwvc3ZnPg==;" vertex="1" parent="1">
          <mxGeometry x="16" y="888" width="60" height="60" as="geometry" />
        </mxCell>
        <mxCell id="zNZKR07Lyu3Vpi42-jQx-26" value="&lt;h1 style=&quot;box-sizing: border-box; margin-top: 0px; margin-bottom: 0.5rem; font-weight: 500; line-height: 1.2; font-size: 20px; color: rgb(51, 51, 51); font-family: &amp;quot;Helvetica Neue&amp;quot;, Helvetica, Arial, sans-serif; background-color: rgb(255, 255, 255);&quot; class=&quot;text-center&quot;&gt;Opentelemetry&lt;/h1&gt;" style="text;html=1;align=center;verticalAlign=middle;resizable=0;points=[];autosize=1;strokeColor=none;fillColor=none;" vertex="1" parent="1">
          <mxGeometry x="110" y="915" width="150" height="50" as="geometry" />
        </mxCell>
        <mxCell id="zNZKR07Lyu3Vpi42-jQx-129" value="&#xa;&lt;span style=&quot;color: rgb(0, 0, 0); font-family: Helvetica; font-size: 20px; font-style: normal; font-variant-ligatures: normal; font-variant-caps: normal; font-weight: 400; letter-spacing: normal; orphans: 2; text-align: center; text-indent: 0px; text-transform: none; widows: 2; word-spacing: 0px; -webkit-text-stroke-width: 0px; background-color: rgb(251, 251, 251); text-decoration-thickness: initial; text-decoration-style: initial; text-decoration-color: initial; float: none; display: inline !important;&quot;&gt;Grafana Loki&lt;/span&gt;&#xa;&#xa;" style="text;html=1;strokeColor=none;fillColor=none;align=center;verticalAlign=middle;whiteSpace=wrap;rounded=0;" vertex="1" parent="1">
          <mxGeometry x="398" y="785.5" width="130" height="30" as="geometry" />
        </mxCell>
        <mxCell id="zNZKR07Lyu3Vpi42-jQx-131" value="&#xa;&lt;span style=&quot;color: rgb(0, 0, 0); font-family: Helvetica; font-size: 20px; font-style: normal; font-variant-ligatures: normal; font-variant-caps: normal; font-weight: 400; letter-spacing: normal; orphans: 2; text-align: center; text-indent: 0px; text-transform: none; widows: 2; word-spacing: 0px; -webkit-text-stroke-width: 0px; background-color: rgb(251, 251, 251); text-decoration-thickness: initial; text-decoration-style: initial; text-decoration-color: initial; float: none; display: inline !important;&quot;&gt;Grafana Tempo&lt;/span&gt;&#xa;&#xa;" style="text;html=1;strokeColor=none;fillColor=none;align=center;verticalAlign=middle;whiteSpace=wrap;rounded=0;" vertex="1" parent="1">
          <mxGeometry x="688.23" y="789" width="181.77" height="23" as="geometry" />
        </mxCell>
        <mxCell id="zNZKR07Lyu3Vpi42-jQx-132" value="" style="shape=image;verticalLabelPosition=bottom;labelBackgroundColor=default;verticalAlign=top;aspect=fixed;imageAspect=0;image=data:image/jpeg,/9j/4AAQSkZJRgABAQAAAQABAAD/2wCEAAkGBw4NDw0NDQ4NDQ0PDQ0NDg0NDRANDw0NFREiFhcRFRMYHCggGBolGxUVIjEhJikrLi4uFx8zODM4OygvLiwBCgoKDg0OFQ8QGysdIB4tMC0tLS0vLy0rKzArKy0rLS0tKys3LSsrKy0wLSsrKy0rKystLi0uLys2LS0tKy0rLv/AABEIAMsA+AMBIgACEQEDEQH/xAAbAAEAAQUBAAAAAAAAAAAAAAAAAgEEBQYHA//EAD8QAAIBAgEHCgQFAgUFAAAAAAABAgMEEQUGEiExk9ETFkFRUlNUcZLSYYGRoRUiQrHBFHIHMqPC8SNjouHw/8QAGgEBAQADAQEAAAAAAAAAAAAAAAIEBQYBA//EADYRAAIBAQUFBgUDBAMAAAAAAAABAgMEBRFRkRIhMVLRExRBYXGhFbHB4fBTkvEjQnKBJGKC/9oADAMBAAIRAxEAPwDuIAALHKuUIWlKdapsjqUVtnLoijm+UM5ry4k3ys6UMdUKM3TUV1NrXL5mf/xIqS0bWC/yylWm/wC6Kil9pP6mjo01urz7R008Ev5OmumyU1RVZrFyx4+Cxw+5frKlz4m531TiVWVLnxFxvqnEsUSRr9uWbNq4RyL5ZTuPEV99U4kllO48Rcb6pxLJFUQ5yzepOxHIvllS48Rcb6fEkspXHiK++nxLFEkRtyzepOysi+WUrjxFxvp8Sqylcd/W3s+JZoqie0nm9SdmORerKNz39bez4kllGv39bez4lmiSIdSfM9WS4xyLxZRuO/rb2fEkso1+/rb2fEs0VRDqz5nq+pOzHIvVlC47+tvZ8SqyhX7+tvZ8SzRNE9rU5nq+pOzHIu1lCv39XeT4kllC476rvJ8S0RVHzdWpzPV9SdlZF2r6t31XeS4k1fVu+q7yXEtESRLq1OZ6vqTsrIulf1++q7yXEkr2t31XeS4lqiqIdapzPV9SdlZF0r2t31XeS4kle1u+qbx8S1RNEOtU5nq+pGysi5V7W72p63xJK8q97U9T4lqiSI7arzPVkuKyL2jlKvF4qo38JPSX3M/k3Ksa/wCWSUKnV0PyNVROEmmmng00010My7JelezyxcnKPim8dMeD/gxq1mhUXDB5m9AtrKvytONTpa1r4rU/uDuo1IzipRe5rFejNK002n4FyACzw1L/ABEo6VtSqLbCvg/hGUX/AConPUdVztt+UsriK2qKqeShJSf2TOVGkvCOFXHNfI6q5p7Vm2eVtfJ/VkkTR5okjXs2jPRFURRJEMkkiaIIqiGSeiKogiaIIJokjzRNEMlokiSIIkiWSTRJEESRBB6IqiCJIhnh6IqiKJIhkEkSRFFUQeHoiSPNEkQyGTRJEUVRDJaPREkeaJIhkmy5u1E6co9mePyf/ALTNqX5qkeuEZfR/wDsHd3PNzsVPyxWjaXtgaO1rCtI2IAGzMct7qgqtOpSeypTnTflKOH8nGGmsU9TWprqZ2849l+jyd1dR6q9Rr+1zxX2aNZeUd0Jeq+pv7invqQ9Hpuf0LJFURRJGoZ0BNEkRRJEMgqiSIokiGS0TRJEUSRDJZVHojzRNEMlkkVRRFUQySaKoiiSIJZNEkQRNEskqj0R5omiCCSJIgiaIZJJFURRNEMlkkVRRFUQySSJIiiSIIMhkSejXp9T0k/muOALa0q6E4S7M0/oDormvOFmoShJ8ZY+yNfarM6k01kRvs+XCpKFGip04ycVOc3+fD9SSWpF7m9narusqFSmqU5JuEoycoyaWLi01qeCb+Rir7Mas6k3QqUuSbbiqkpwlBP9OqLxw6y+zczRnbVo1686cnT0uTjScpLSaw0m2l0N6jcQdr7VbXDHyww+fp5mTWjd3YNxwxw3b3tY/wA8fDAyucuX42MYJQ5SrU0tCOOjFJbZSfzWrpOY3dzOtUqVqjxlUk5ya1LF9C+B0jOrN/8ArlCUJxhVp4paeOhKL6G1rWzb5mucxLzvLbeT9hNsp15zwSxiuH5mfW66tlpUtpySm+OPru/0asiqNo5iXneW28n7CqzEvO9tvXU9hh91rcrNn32z861NYRNGzLMa77y29dT2DmNd95beufsIdkrcrJ77Z+damtokjY1mPd95beufsJLMm67y29c/YS7JX5WT32z861NbRJGxrMq67y39dT2klmXdd5b+up7SHY6/Kzzvln51qa6iqNiWZl13lv6p+0qszbnt2/qn7TzuNo5GT3yhzrU19EkZ9Zn3PboeuXtJc0Lnt0PXL2kOwWnkZPe6HOtTX0SRnlmjc9uh65e0ks0bnt0PVL2ku77TyMnvVDnWpgUTRneadx26Hql7SqzUuO3Q9UvaQ7vtXIye9UedamCRNGbWatx26Pql7SXNWv26Pql7SXd1q/Tft1J71R5lqYREkZpZrV+3R9UvaV5r3Hbo+qXtI+G2r9N+3U87zR5lqYVEkZnmzX7dH1S9pVZtVu1R9UvaeO7LX+m/bqT3mjzIw6Joyqzbr9qn6nwJLN2v10/VLgS7rtn6b9upHeqPMjEokjKrN6v2qf1fAnHN+tjrlTS68W/tgR8Ltn6b9up47TR5kY+0ourOEF+p4eXW/oDZ8nZOhQWK/NNrBzerV1YdCBvrDctONL/kLGTePosvz08MTXVra9r+nwL8AG/MEAAAAAAAAAo3hrZZfitqtTubbf0+JjM9VVdnPkscNOHKaO3ktePyx0cfhic4TfxNda7c6E1FRx3Y8TbWG7Y2im5uWG/Dcdb/ABW18Tb7+nxPW2uqdTHk6lOpht5OcZ4eeByJPzMzmmqru6PJY6m+Uw2cnh+bH4bPngY9O9HKcY7PF4ccz71rnhCnKSk9yx38Nx0qUkk23glrbepJFp+KWvibffw4lhnfTqytJqli8JwdRR2uktvyxwb+CZzxM+1st7oTUFHHdjvMaxXfGvTc5S8cNx1P8UtvE2++p8R+J23ibffU+Jy1HojD+MT5FqZfwilzM6d+J23iaG+p8R+J23iaG+p8TmKJI8+Mz5Fqzz4TT5n7HTPxK28RQ31PiVjlC3bwVxQb6lVhj+5zRE0T8bnyLVk/CqfMzqKeOta0SOf5HyrO2ksG5Um/zQx1Ydcepm+QmpKMovGMkpRa2NNYpm1sdthaYtpYNcV+cUay02WVBpN4p+J6AAzTGAAAAAAAAAAAAAAAAAAAAAAAABauwoPW6FFvr5KHAugeNYnqk1wZafh9v3FHdQ4HrRoQp4qEIQT26EVHH6HsAklwDlJ8WDT89cmwUYXMElLS0amisNJPZJ/HFYfP4G4GLzjocraXK6qbn6HpfwY9rpdpRnHyxXqjJsdR068H54P0fE5qiaPNE0ckzrGTRVEUSRDJJImjzRJEMlk0b1mvW07aCetwcqfy2r7NGio2rMqtiq1PqcZr544/sjY3TPZtKXMmvr9DXXjHGg3k0/p9TaAAdWc8AAAAAAAAAAAAAAAAAAAAAAAAAAAAAADzrU1OMoPZKMovyawPQAHIZRcW4vam0/NamVRe5wUtC7uY9dSU15S/N/uLFHGThsScMm1o8PodrGW2lLPfrvJoqiiJI+TPCqJogiSIZOBJGezQq6Nxo9unJfNYS/hmBRf5ErcncUH/AN2KflL8r+zPrZZ7FenLJrTHBnwrw26U4+T+x0UAHbHKAAAAAAAAAAAAAAAAAAAAAAAAAAAAA0LODOW5hXqUqE+ShTk4aoRk5tbW20+nqPhaLRGhHal7GTZrLO0ScYYLDfi+BvoOfZIzou+WpxrT5WnOcYOOhCLSk8MU4pa1ibRnJlOVpQ5SKTnKapx0tcYvBtt9epM+dO2U505VN6UeOPE+lWwVadSNPc3Lhhw+xrGfFJRuk1+ujCb803H9oowCPS8u6lebq1ZOcnhi3gsEtiSWxHmjm7RNVKkpJYJs6WjTdOnGD3tJImiSIokjHZRJFURRJEM8JIkm1rW1a15kUSREliiTp1GqpxhNbJRjJeTWJ6mPyG27ahj3aXyWpfYyB3UJ7cVLNYnITjsyccmwACyQAAAAAAAAAAAAAAAAAAAAAAAAa/lbNehdVHVcp05yw09DRam0sMWmtpsAIqU4VFhNYn0pVqlKW1B4M1zJ2aVvb1I1dOpVlBqUYz0VFSWyWCWtoyuVcnU7um6VXHDFSUo6pRktjX3+pfAiNCnGLgorB8Sp2mrOanKTbXB5GocyI+Inu1xK8yY+Ilul7jN5Sy3bWrUa08JtYqEYuUsOt4bCz53WXaqbswp0LDB7MtlP/J9TPhXvCa2o4tf4roWPMqPiJbte4rzLj4iW7XuL7nZZ9qp6Bzss+1U9BHZ3dnH9z6nvaXjlL9q6FlzMh38t2uJXmbHv5bpcS9512faqegc6rPtVPQzzs7tzh+59R2l4ZP8AauhZ8z49/LdLielHNKmmnOtOcezGKhj89Zc86bTtVPQz2tsv2tRqKq6LezTTgvq9QjRu2TSWw/8A1j7NvEiVW3pb9rTojJU4KEVGKSjFKMUtiS1JHoAbfDA1gAAAAAAAAAAAAAAAAAAAAAAAAAAAAAAAABoGduS6/wDUTrxhOdKSjLSinJQwik1LDZsxx2azXkdgOY5xWSt7mrCKwg2qkF0KMljgvgnivkaC8LJ2f9WL3Se/yb39TorttnarspLfFbvNLd0/OOORNEEVRqTaYHoiqIokiGSSRNEEVRDJZtWaWVJaX9NUeKwbpN9DWtw8sNa8mbYcysK/JVadTsVISfknr+2J006W6K7qUnCX9r9nw+TOfvOioVFNf3fNfiAANsa0AAAAAAAAAAAAAAAAAAAAAAAAAAAAAAGj5/0sKtCp26UoeiWP+83g1jPujjb0qnTCtg/hGUX/AComFeEdqzz8t+j6Ymdds9m0w88VquuBo6CKIqjmGdSeiJIgiSIZBVE0RRVEM8JnScm1dOhRn0ypQb/uw1/c5qje8062laxXYnOH30v2kja3LPCtOOa+T+7NVesMaUZZP5r7IzQAOlNCAAAAAAAAAAAAAAAAAAAAAAAAAAAAAADE5z0OUtK6X6Ycp6GpfsmZY8riiqkJ03snCUH5NYEVIbcJRzTWpdOexOM8mnozkaJIVacqcpQmsJwk4SXVJPBhHHnavyKo9EeaJohksqiSKIqiGQSRtuZNbFVqfU4TXzxT/ZGpI2DMubVxNdEqUsflJa//ALrMu7pONph54rVMw7dDas81/vRo3YAHXHMAAAAAAAAAAAAAAAAAAAAAAAAAAAAAAAAAGpZ1ZAlWbuaEcZ4f9Smlrnh+qK6Xh0dP76Z8Hqa1NdTOwGPvMk21wtKrRhKWH+ZYwl6o4M1Vru5VJOdN4N+Hh9tDb2O83TioVFilwfj6eeuvhzBE0bU8i2ybXJase3PiVjka27v/AM58TXfDa3/XV9DZu20vPRdTVkSRtcci23d/6lTiekciWvdf6lTiPhVozjq+hLt1Lz0XU1FM3LNHJkqUZV6icZVIpQi9qhji2/N4fQyFpkS1pPThRjpLY5OU8PLSbwMqZ1hux0pKrUab8Evma22W9VIdnBYJ8cQADcGpAAAAAAAAAP/Z;" vertex="1" parent="1">
          <mxGeometry x="617" y="725" width="65.97" height="54" as="geometry" />
        </mxCell>
        <mxCell id="zNZKR07Lyu3Vpi42-jQx-134" value="" style="shape=image;verticalLabelPosition=bottom;labelBackgroundColor=default;verticalAlign=top;aspect=fixed;imageAspect=0;image=data:image/png,iVBORw0KGgoAAAANSUhEUgAAAHkAAAB5CAMAAAAqJH57AAABLFBMVEX////40CH3wCL4ziH3viL40iD3wiL3xCL40AD0jyb1lyb4zCHzfCjzfijzdSn2qyX0hifyaSrybSn2piT3wADycgD0iij2sCP3uAD4yAD1nCX1oQDycSnzfAD1oSX//Pf0gxz2qgD+9fLzhAD0jgD1lwD+9+n989397ejxWQDyZhfybADzehv859T1kxj1nRD85Lz98sz0h1772M35w7LzcBv0i1L6z8D0gkT3sYv84dT0iTn71b72pGz1n0P4tHv60Kv2qUj84ML72q/4v2/4xX35zY/4v1v61Ib73KD75JL52Ej3rJP1km3zeknwTQD3pIPzcjn4uqL1lmP3qnv1m1f5w5/2o1P4vYv2r2H6z572rDr3uD/5zXP4w1D5z1/4ykL64Hr87bb522GveXYEAAALG0lEQVRogcWYeV/aWhCGj63eomVHFhEJBA1hEyjigrjhBlZb61ZrqyB+/+9w35mTUPfU9tjOH/yYpPLMvOedSe4V4rHQ5/YPPpmP3nrl0HP5fL72L8giEAjkFv4J+UMgkD/6J+T9fCB/8E/Ic/lA4NNfZpps6RrIgb+J3c9//swim4FgMGDqtbn9/b9DPkKrH/hbIhjM1+Zy+dxf0nwhh+PV6dsiyHM1pF/0v0I2P+N4+aAP88H8vp6z00Ho2iuhgco16MtRPlj/QOntVWYeHnyZeyXyF5D5t2v5RCIoPtmpRQ7k84fKmZq5sH8kDrBB2M2NRCKRg+ZWasWn15jyuc+5fABjFQyyufXFhLdgQvP8B+sfmAs1XqrKybQ78thdweAi50ReqCH9wukhBuyAl6pyr5uwcd5sEIrdfFD31o/MejAY5HSO5o0+X+Hh+YV8rMNYdWlukA9poci0QTbHJ6ZcORnuwa/CWAV+MDcL3vq8+JJI5Dk1ad50MxHMq1+ntDsOxTxQ/GBuFLzeMDS3Up3mraZ/Cr7Cw/OIbX1YT9R5ZE2315uDpbwytd4VPuDclZNrOaxqMVdIeNnc2rzbXWjU7NSSBIXllJMbaCcnanWvN8H5cdEdbjaQFjilST+GMImc8ndS7I5EwTSBqvNvLxXdxSPdCzJP8EKBJh0aFNS/Gc6zrYGq88g2w+7iiVgEmcfKzGHedBOOV/9mCB/jVwnFI9souN3z4hhjzalewCI3oUFd/TNjn3fHcd1dX2JU0eMpiqWwlWqLLMm81zuvnLxQoF8FqngsUR5PWF9AusK3aZ0uiRP4QDkZZ4hfBcpd5Py46Ak3GkiXOV0C+QCf7oL6Zwb5WGsUMccSBfKcOUiPWBL4TjpOZWjz5GPT7XaHeayOip7ikqCFwimt00Udvgurf2bAx+GmWPRggzAq7E+tsOY8ZXqBJl3HuS8pJ9PuWCJU8YxRU37/sjixUxGmdSqWLQMqjTneHYQ6oVTz+/0p/SzssZqE7hAahc0rf/OVuwMotxzZ05R/ymyALMfqpEiFwXdF5ebGGbrdOF6PX47VGshNPUyaUxwVSegznLv6Z8ay21PQzZTfH2Y9z1L+1Jm+7PdPcZPNsMezLGphjzSg0uDdwSge2eaUP3VCmssmIYbHA3P7p9Q/M2Cu8Bkf7zqlJsin4oQ059sgFxuCy1EdZ7w7ViCydPNUJLKsseacomXUcErlqI4m7w5CSTcvRyIRszlo8hjdn1Fhy69gbr//lI7Xv8wWW0lFMg1jym5yKWUXpv5/0sHWfh3H689Y5o5k1kUGnXOTc7zUminLgEqDd4eeikSmDEqbmdHMuTiNRDLcZJMK00pTVI7qWCEfazjeDLu5lBkdPSXNZZM06RB6KpI6V04+szwUybCbNZBXLc0piNwUkGRFOZl8vCbOUxF8UoA8qkPzUdnkaoRqOE1FVpU/M3CGkVOxziJTfAW5RJrLJiEGhD5HrtzcGu+OBonMXa1Nj2ZaYspOzzKRFBeWKakmiwjtDh1ky83TY9PrAo3LJkn3UdHEXfXPjFPaHYSSXbVmx2bXSPNpTkt0QzenadZUB84Q/QAl3WyOjY2tWhcRhiwJn2vKyeu8O9ZGR2dlVyCPiXVoLp8Zq1zSKs2a6pA+Pp8dnf0mUSAbpWnSnILEOBNrs2Nj6t/2eXe0piGyNDcOuqQh/cq3z6dHUcMZKlFv7mkcooYm0Sql62zuQSHr9I0Km20pJ69CyRKhpJsJci41p5RKmhalWSpHdUDe6ZYAfpq7KsXjOHHWnFITNzK6Pmafu8qQ8n4D6oJSfTUej4v1mbGZlkxZjNX4mHpzN1ne81m7q414fEa0ZuIzcsq+4gYKi8fLysk4Q8i7PhOPb3AOyIyRnY3H5ZSRGCgMlah/ZvDuQJPxJLv5ApCWiJPmVhrfEpu4qH6syMe6AUBcmnsmWcbWQqrJNB5fFSWQ15WTv83G4WMAZFelcrK8Q5rLQqikGWEk47ioOs5Z3iQAm4xKJpMb4gJ8NrcRp5K0jWT5m3Iy+fhCbAG1TSkgybJolUlzK0Vh31CPcjLOEEw0mbTcDBRrvm2n5QuxXcZF1YEzxEChSaurHUCzUnOKba4Bhc0YqslSXjSZLPNvb06GJlsCF0N8e32GamiV6aLqIHk1DU2WpblBvhDfQqFJHqvSTCgU0gy+qDroDEsiGbK6Isi22MEnF6KXQ6Gyrn+ni6pjE7tjU+yGrK6076HQBmvOU6ahZdSwSxdVB44YTGpyi/MtsCzNKaikTbo4qZxsgLRFTYa+c7496ZvU5UWZsvpp36R6c7O8aNLq6gKQkvbd55OF7Ez6fFSYb1L9M4P0FIYvZHXVmvSlce4+nyykAvIPLcsXVQfOsKxRk2n5HgLItthG5zxWBsg+Q0v70uqfGRes5IbP6goQyHsxkBfkSUP7EY1uKSdLebd8dle7JG8JF6W5o1FfuiJ2o9Efyv8jGnqCCWP5djnfjkajmpGO2oVE6ds2cuVkzUfykpPSnO8AkiV5d+0UQm/SReXkXZqgLADSUxVApLx8G0zU0OKLqmMLemoGNJZdkdAd0lzKW03TEf9U/9dC04xqp+10PiSvwecpu2J5O3xRFhKNZuni5S9Cs5X25dVwLBYbdiKTvC3LSRTRu/LiC27/SMccydTmLiFjwxwxp4WbZXnb6Eo+CXdteTucXl12Ng2Rfa5+tNm57MV+Mi2ykyc1MNvspCvOyc3YWum0s7xAbravHiCH33DEHD3JE0TmjnFjqOEqK3Y6refaNKjN4eH7zDe3Y7zjRLbkTcfkwRjZZ88nW620r64eMO9j/0M4itYG1NA2W88T7Rh+gHxAtKPr9FuVduVZZXGeJG77kh3TfQJ5h/nfO4reHy7cSlfaNia92o7dIz6CRIxT/OZ7DPqU69QWV3q1Ensc+u4Os3fZqbx80ZOyXbYQ11yNWcpKr2aH7zHf3WG+67Y71ReqTPuA/6Rte0jKmx2oy141em8eIN8x8rLdz2ovhELY9lVv2Nq0HdnksLUKjIG00qtdQv53C9nrXnaqhvE7drq0J0XKOzjJmFwFgyZ78l+P32K2+9XfQlrRHnhIymuTx9uSPNCWGX3J7FSqz1pX07J9xyVG8t7atMbAP93bTSJkYZ3qs88PQKv9vW5vYmLCcaAr43c3re0gS97OuJyU8XHHOYFJrwk5MfGew+kPquPWoAzktZtkPfs0Kf3nd6uBNm/e/mS+5ZioOpCN8bubtms5qHfpvIS0bLV/3X3//h5Thqvv9Ofj9nBKcpsd5GRaI1uFtMy0kLepQ2+HhoZc107kwWxKS2Szz0Lx/CAH/WzzbqOEtOOjE7lnD8ovrdrOT+RTRCtGRpyOa4+WkMO/wXjuSQNWJhyZI0RFuJws5hCGnE6EfCOfeAppA2W4EI4We7RJmLYnye8tD03wD2mPtXkHSkzXx+u9vsPKeQLKpuUz0HpWixN7fLt7/zTvModurvccD+9eYFD4L7K2haxV0LXn5IbTPddDJiFHPt5cv/wJAihPCutpDJaQPKdruz0Xp30XxL3NHBn6eLNXfX4Wn4hsz1oIE7y5B/K69u426ZKSuH62OfQRbf7aW+ujUbUHZUJunRvbQR8HTUqY1IAdNHKz13/pcT4MYzCfEmXLOyLlrbpsZaUGv+PaJ4LlZdZ7zqW8hJIT7BqxuvzDzfBI9EZsE8n3jrvyajScL32j/MW4kdvAblLKS7MpD/ZP3rUcYs81cnvTZnk495xee1RE327SkhfvWq/OlFHlFXStYk5eGNprC/s/5IUDqTr90d4AAAAASUVORK5CYII=;" vertex="1" parent="1">
          <mxGeometry x="274" y="722" width="64" height="64" as="geometry" />
        </mxCell>
        <mxCell id="zNZKR07Lyu3Vpi42-jQx-137" value="" style="shape=image;verticalLabelPosition=bottom;labelBackgroundColor=default;verticalAlign=top;aspect=fixed;imageAspect=0;image=data:image/png,iVBORw0KGgoAAAANSUhEUgAAAPoAAAEECAYAAAABAyngAAAABGdBTUEAALGPC/xhBQAAACBjSFJNAAB6JgAAgIQAAPoAAACA6AAAdTAAAOpgAAA6mAAAF3CculE8AAAABmJLR0QA/wD/AP+gvaeTAAAtv0lEQVR42u2deXiVxfXHv2feu2TfICGEsIckgKKICwICIrhDrRZkUxQkIIh1qbvWaG3FrYgoKgrIjqBVS7VQ6wbue4tACJEAQkiArDf7ve+c3x/hh1YjJDd3eZf5Ps/rH5h775mZ85lzzrzvOwMoKTUjzhngLLu6bxfVE9YQqS5Q+rlKJ/Tpq5FcBqAfgKWa13dv7PqCw6pnFOhKVojiY6FVOnv/AeAHALh/8r/KmPkPiWt2LlW9pEBXMrE8V/VM0X3Ol0EYfpyp4C2vxPTktTuLVI8p0JVMpsrxfc5iIV8BkN6CPy9nwdckrtz5d9VzCnQlk6hiYu9pAD/zs1T9hFk+E/6U0CvvAcqFVL2oQFcyNuR3ADy3DVX9W4BrcsLqreWqNxXoSgZT06Jb9kIAOQH4ujzp0C5IWr5tn+pZBbqSgSCvcGYvI2BSwL4TOMiEC5JW5W1VPWxMCdUFNoIcoEpH9rOBhPxotOgoGO+UTujTV/WyiuhK4a/JnwV4ZhC9qVgQD49buXOn6m0V0ZXCAnn23UGFvCllSJU6vVM6KSNd9biK6EqhhnxC1jgQrQnhxP51o1cblrJ+W7XqfRXRlUKg8vF9+oNoWYjH+jSX07eCVSBRoCuFAPJrTk0gwesBRIQhWbyscmL2rWoUFOhKwUatsX4xwD3DaMLDVZOyBquRUKArBSuaT8y+BsDlYTbDIZlWHBrbN0aNiAJdKcAqnZSRTuB5BjGnu9vh+5MaFQW6UoClsWM+QAlGsYeJbqwc3+csNTIKdKUAqWJS9vkGSNl/4Wcs5JNqFV6BrhSIyDkWGjPmGdS8gZWTsq5Qo6RAV2qjqhxZEwjoY9yZiB7m4cMdaqQU6EptieZE9xrczIzKTiUqqivQlfyuzV1ZUwBkGd5QyXepWl2BruRPNAeImO4whbGEUyomZg1Xo6ZAV2qlKif1GQEg00QmX6tGTYGu1OqQzjPMZC6BLldPyynQlVoTzcf2TQL4MpOZHe12+C5ToxfKyVXJ3KBPzJrEoJWmS0KAgwTeTKAdzPhOSGyNlXnf03roRrXZc1XPlEafO1mQnkIQ2rG2CPZpXhTFvZyXr0BXCooqJmatBehKizSnDsB/CPQZgE+l5E8T1+btCfEERNVX9sqWDq0/g04Fc38C+jCQDMB5PNt16chqt/a7HxToSgF3ysqJ2aUAEi3czL0ANjGwib2N7ySt310Z6B8ovqpftNvnHUXgiwFcDEInv2BiLItfk3eNAl0pICob2yNeuJyjmDGGQFfZqOk+Bj4ToE2AvikuM//LtpwUUzU+e5AUPPVoRhSIxUEdui8r4eWC7xXoSn7DTQ7n5UQ0EcCwE6SRdtERgF8H0fr4A6nv0vvv+06YBeVCVOZnXQGme0A4JQhZ1tOJq/PmKNCVWu40OQOcFZ7aSwg8CYRLEZYtocwEPb1Ckl6KX7v9s2YnywnZo4kwN8jvA9SwKyI98aVvKxToSsdV+fjsbqTRdcw8lYCOqkda7dTbJGOJBrk8bk3+kYqrsrpDp2cBXBAiA3ISVuW9oEBXai7lo6pJmRcya3MAvgDqGYdAqA5EG8B8EYDYEP7u5oTVecMU6Er/k55XeaqvZKLbAPRTPWKNYWWJHqG+NXg8qXeDw+UJF2W4qxIcOZXVNbeCqKvqEWtVD4LoYgALjWKQSg9DDXguRMXErLGViY7tTHgKgILciuNMPEKl7ratwbMnMCMXQC/VI5ZXaXxmXkpb7vMr0I/Xu5My4iBdnTXoHUBox6BoAcQwKPpn6JUz0KgRjrAuDrNTP1QP96HUFf+tCbRNFROzBwBYAOBs5f82mtylOC1x7fZvVI3ehujomZyVKXWcwkR9iNGXCL0Z6AJGLEgem8Oo6e+P/ffns5xkAEICOiECjaicmF3E4B0MyhNM2yXhu2qv54vO6/fXtdbOqquz20kdfwZjuiqT7FioyzMAGAJ0U0R0zhngLK+tG0hSnkfAQABnIrTPdzcQ6AsGbybmLQ0+x4cnOim0fGL2NQQ8DqCdcnm71ulYkLgq70YF+nHT3ZMTmbxjBOMKBs5FYJ5FDpTqCbQJkOt9pG9ot6qg6kfAe3cl8PMI1cMZSkbWpoTVeRcq0JuDmxsvI8LvABoJwGWCwawn0CYmrCGgPTM/jNA+nKFk1NQd2Ba/Ou8kBfpRVY7vcxaEnMnAlQAilYsoWUTlCavzkoxgSFgX4yrGZ50OQc8y5OnKJ5QsKMOUm2FdCSYhLgKgIFeyqpycM8Bpe9CZpdoJVMnayo9l24MOAQW6kpXlbclmGNZP3ZkU6EoWFtcYxZLwpu5QEV3JypzTfgU6AAJpyhuULMu5wF4FOgAG+5Q7KFlVQvIuo9gS5pda2KfelLWEagAuA+gIgFKAGwFxgvqU4wC0P3q1gxXLOMKXCnQADPIpzE2hUgD5AApB2EeSfiDB+3yS95E7cl8gdjzlizLcpcmivSZFL5LIBCOTCJncdOZ7d5hwe2sJxzbjzDlhVOWE7JeYMEVxZKTCEgdA+AzMn0LQf5xEW6NX7jgYVpMuynB7Ehyn6cDZ1PRO/9n+nqYS2q7ER16vduGJ3nS0POjlE7MXEHCDoiusygPhAwI2++Db3G5VwX4zGF06/qTODuEdykSXgHEhjHss1Qf1muuSYGxoYp6IPjH7fgZyFWshVT0D/ybQ6z6HvrH98vwDpk9Chg93VKSVDCKWlzDRpUE+oMEfvevxVl/qz+YlVgH9Bm7aYkkpuKoD400ietVH3rd++v68FVU2KftkITEFApPASDVIkbwxPjp6DC36ymvHGn0CE1YrDoNWI24n0HLh4BfjlueV2q79uRCV+b1HMOTVBLocQHSYTVodvzpvMjW3r5mVQa+Y0HsUiP+lkAyoGhi8ThAviF+V/4XqjiZ5xmYk+5yO2QTMQtNZ5+GZfAgPJq7Ku99mqXvvXgzOV24YmO5k0AIna0/HrPmuRHVH8/phbHpkrCt6CphuQdi23abrElbvWGwb0HlsX1elU68FoB6F9V/lxHhSuiOeMtoJnkZP6yvysy8jxgMghHq7Jy+DRiau3rHZFqADQMXE7D1Qp5X4o0YAL2ma977YFd8fUt3Rljo+6wqA/gIgI4Q/XeJzyAGhuuthBNDfATBCuVxrvBOvSad2U9LybftUZwQuu6xyyekMvjdUK/UE+jAuJmpEKFbiRfh9FjuUm7VY+yRjTMKavMsV5AGGbv22xvhVO57R4csi0HwAevB9n4dUVdc+For2hR10YvpWuVmLUq/l3gg+KWlN3gbVG8FTu1UFVfGrd9zEUpwBwmchgP33lRN7j7dD6j4AMM5bPgZUJRFmxa/KU88bhKN+35WVA6a5AOKDOcYMOiVx9Y6gvb8e9ogeX+77DoBXuVWz8/DnJLTTFeRh6v1cyIRVO5+TDq0fGO8HEwPBcgXnBo/H8Kfu/yxoAPBf5Vb/I8mgh+KLOgyOX7mtQHVHeJW0fNu++Ky880B0B5rudgQ+eyA6p2JX76Cd02aMk1omZj/BwC3KpQAANQyelLh65xuqK4yn8vF9+kPIlUF6caZeI21A7Kpt2y0X0QFAD25aZJ5UESgCMExBblwlrt3+jdernQWidUH4+gid9eU8fLjDkqDD17gZIbidYXAVsu4bmrA67yuFk7GVsn5bdcKqHVcCmIHAry8NqEg7ONuSqTsAVEzK/hSMs2zqO1sdXu38mPXbihVG5lLFpD7ngeVaNO19FyhVOQVlB3JnH2GYHpNs1/vD35BXG64gN6cSVm1/BxqfyUAg6+o4L/MT1kvdAUjAjqBvFSzPj1+/rUwhY2LYV+wsJDiHAPgkYF/KmFAxIWuE5UBPWrPzvwAKbeQfeZrmHRm3Jv+IQsUCsK/eWl6vuUYB2BQw1okWBGphThiqtwgv28IrCMUscZF668xaSl3x35p4rzYmUCvyBPSpTCuZYjnQNWgrQE0ttPBVS0Jclrg2b49Cw4Jz+PptjfGNOyaCaEkg/IWIHyzKGRBlKdBjV23bDuJvLQy5ZOIJ8Su2f6aQsDLs0ON77ZgO4sVt9RkmpEXVVs+2FOgAQMQvNu2dZ72LgT8lrtz5d4WCDWDPhYxv2DkDkGva7DuEO8uv6ZZgKdAb6p3LQKiwWjQnwoaEjLwHFQI2i+xRsVNAeKtN/gMkQUbcZCnQU9ZvqwbhRYuN+X4iupZyIZX72wz2RV95PfU1v2Pg4zZ9D/OcQ2P7xlgGdABgn3gaBJ9V6nIAU+y4r7pSkzqv31+nEY0BIa8NfpTkjPRNsxToiat37AXhdUuALnhuwoqd7yp3t7filueVslNcCEJxG8q/WzhngNMyoB817EnTc87YGR8rVV2u1BTAFu/YKwRdQUCDnz7VparRM95SoMct2/kRiN8GMUx6MWuYRQsKGpSLKx3z66V5HwOc47dfAbMtBToASIHbQJBmDOdM9FLCUpWyK/1S8cvyl4PoKT9966zyaRn9LQV64pL8/wCmfCz2sNDpNuXSSr8a2bt2vBXAh35FZxbXWQp0AJAs7gahwWQR/Q9qlV3peKLc930+TU4AodSP++qTiq/q16qTYckMnVI5NfMJmGRPOWJ+P3bprhHhOBrXSGKAPFOzMsHIBnFPBnoClAFwZwAJACKO8/E6gIoBPsjMJUQ4QBB7WejbdCF3JC3aXWmVfqq6Nus3TPxaa1kkwjVxi/OXWQr0Q7P6xrgbvFsBdDO8sZIHxi/dZbtn2TlngNMjPQMlMJgkBoMwCEBSUCZTYD8zbwPRx0LKD2Kq6z+n9fvrzNp3lddlPgXGnFZ+bGP84vyLLAU6AFRO63khSPzT4Gb+I/7FXaNtA/ecDLennkYx43cAjQE4MUymNIDxBQj/Eixfi138/Xem6seb0yOrPBHfApTZio95SVBa3KKW7WdAZuqQyusyVwA82ajjJQmnJb6w61urA14+vdepBMwhxhUI7gkm/g5FPkH8TUp6NWHJTlOcAlQ1LWswk9yMVqybMWhGwov5iywHellOj3gN2tdg9DBcbQ68EvfCrrGWjd5joVUm9LoMwBwChplnrYC3EovndeFbafTavnJ65l8BvrnlPsfvxr1QcJ7lQAeAyhk9LwQbLoXXBXG/2OcLtlsOcICqpmdeCeKHAPQ0cVNqGLxGSm1B0os7DXkyUFFOWlQ0or8D0L2l6bsOPbklE5gwn+eJTOMZRWusCHn5zIzhVTm9PgPxGpNDDgDRBLpOE/Lbihm9/lY+vdepRjMwbVFRLRH/vhUfcQrWRrbkD80HOmGs0e6b6xo9ZiXAa3J6d6yYkfGaYHoPhDMstjcAEfBbIfB15YzM140GfNzzBRtA2NCK9lxsudS9dmZmJy/LfQaboD6Kf75giFUgr8rpOYWJ5gFIhD0kCVgMFne3dAU72Kq4PrMHpPyOgMgW1FZFcYsK0k/03IapIroXfAUIwlivodJCq0TxypkZb7Ggl0BItMEmnf9/CSZMZyHzK2f2vIFzA3/uWWuV8Gz+bgG07Fl4gTRPTmaWtVJ346Xth+Ic/Krpo/isHkN8WuNXIFxkI8B/fiWCaIGnZP+X5TMyTwn3mOiRvrkglLXIdoccbBnQq3Iy2xN4kMH840Wzv4bqub5nDli8Q6CO9mX8p4+R4xRNyC8qZ2Xk8lho4RqXxCf3VBDw5xbZzLAO6KzJCw2Wtus6O14wK+CcO9xRNbvXS0z0PAguKMp/ejkJuN+TnPFu+czsbuEao1gHnmHCDy2w1zqgC2GwtFLwxsTnzHkIA9+cHuk5vP9vAE9RUB/3Gqppvm8rr+91SVgq1QUFDYLwcAvs7FV+0/G3gzYF6DwWGoMvMNQe7ZLXmBHyQ7P6xlQ1uP8O8Gir7p8f4CuehNxQeUNGLofhLlWMwBIQHzyBjeRocJxietA9KRlngtDOQDN9o3TJN80IeYRoeIcERqpojVbee+f7q2/IWMk3p0eGcsxoQUEDmBacyEbpYPODTsQjDGbSO4lP7qkwV03e1xUp6l4F+Ewo+deH4Iker+u9qtnZ7UK6Au/0PQvguI+5kiTzgw7COcZamqVXzQU5RHVZw1ImOl9F57ZedBaE9/2am7p2DOUKPIieO8GaUaapQefc4Q4mDDLQYPvgFm+YCXRPWcafGTxRQRqw6yRdOraU39QtZCvyDic/c4JDTXqYGvSq8n39AcQaJ33DB3FPGONRyRb1340ZvwH4DpV4B1w9Naltqfp996xQ/FjUX7//AcDx1oU68jXdIkwLOoGHGmm/dkH8N7N4YsWcjJ4g+RKIycT74xv5SifQv2rnZKSHBga55Di2kCfm17dacxjdWZnEmWSgfRZ1cmw0RV0+J8NdJfT1IEoI0wxdSIxPwbQdAgXMtJeJDzvYV+Nt4PpjdrpFvAatE5HsxIwuBDqVGQNAyDRFaQl08WlyY+XN6UPj5+0vC+ZvxSZ2fctTvq8YhNRmbXFo3QHkmRJ0Ag8w0LDuTpiXv9sUKbsm7yJQ/xD+ZB2ATcz0mubS/xXz2J7iFn6uHMCen/9j6ZyMOIcmzyGmc5n4PAJONXB39yW4NhTlpI1KW1RUGzQWct/3Vd3UYzmA25tNz4m7mzKiV9zZJRENhto26t+mWHy7sedJTHxXiH5uKwEL653OVcmP7vQE6kvbLSioOlqTvgkAlTf3zCDIcSCaAMZJBuz2QTHREWs5F5cF9Xhs5iUQdHvz2S91N2WN7mh0nAYDvTNPJAx/xBKPhcYavwjAFeRf+kQKPj9u3u5+sfN2PxdIyJtT/LzvC+LmFf4l7q+7TybJw5j5ZQBeg3X/6OqKHvcF8wfi5hfuBPDRr9QRHUwJuiQaYKTbKl6dPzF8NO/S/VoQzgpiP3zPGi6Nm1c4KOGJwrfD0cbY+YWb458sHK8L7gXwIhC8hjlzT+CPlbf2vCiY7SfCql95jS3JlKAD8iQDrbAWJc3fvc/Q0fzm9EiAcoPUfh2CH6+Oq+8X//huQzz+m/hE4d64eYUzdCkzmbDWIH4iCHJlMO+xC4f3DRDLX/y2kIkmBR1ZhrGEYPxorjluBLhTEL76IBGPjHu88La03OAtNvkN/JN79sQ/sXuCIBoFYKcBTErSHLSecwY4g/Hl0Y/+UATg82ac1JwRnQhZRIARLhAZ+iCA8pu6JRDojiC0fYvwoX/s43veN/pEF/P47n/HNmqnENGTROCw+gxwenVc2Z1Ba6zg15r53QTTgV5zU9eOIMQbpfYSkN8a2cmdTrouCHu9vRzToI2KmV9YApOIFhQ0xD6++2bS+CIQisPsN/d6/tAzOHcIdPF6M7/nMh3o0oVsg5lkWNB5LDQJ3BDYL8XTMY8VTjDrVlkxj+zZpJF2BghfhdEMF5NcEowNJ+P+ujsfwO5fFJhmA51Z9DTQintJKx4ACbmqu3f/LRG6BrC9L8Q8Xnij2Y9+jnq0YH9MVMNQENaFy3eIcIanbk9wjvwmbPz5e/OmA50EdzbQLiP5xnZpnhWwthKvj4kqnGmV890pt6g2JqpwAsDPhct/iPm+6ru7dwj4qAObfr7TjPkiOtDNKBGdCLsMu5Zxe+c0EIYFqK3f1uh11wb1ya6wwA4Z8+ieWUz01zC9wx7DEn8MdLvqo6LeJULNT/Z432sa0GvvSe9UfUf3F4kwySigS0KBYSdEoV0ZkN1xgQof4bepj5fUwIIigOMeKbwVgp4Jz2YlPL3yth69AtmmlNxt1RB0PYj3g7CVma//tb81zLPupbkZca56/XZd55tBHGUoJ2EUGtiDxwciySbQnMS5hXtgccW4C2+sru+WAiDUR1w7hSb/DGBcQNvzcOEKACtO9Hdhj+gMUNXdXae6GnwFIL4HhCjj7epPRYZchLutWyojAIcgCno15pHClbCBKBcypsZxFYCPw+BLv6u5s2v/cLQ7rKDX3N21Y/Xd3V4n0GIQko26dZDu9B0wpNc6eQTo6Fqr/1edQ6dbYCPRgoIG0nEFCAdDvZusJHGrbUBngKru6jJdAnkAjzH63t719Y2GvLXGwLltbx8ejXzE2M/wByWFf2xPMQRPBlgPqT+RHFd7T8/Olge9PLdbQvXd3V4nQYtAiDPBRoB1hl2gIpzbxraV1rlqHodNFfvQ3neZMC/Uxz354LvR0qB77u3a2+Hlj0E8xkT+UGlEoyru7JIIoGcbU4L5KbmHq2FjxVY57wWwPbTzM3LK7ugRb0nQq+/rMhnAlyD0NtXWvgJVRnRQTdNObmPbanXJT8PmogUFDSzkTBA4hH4V53TJCZYD3XNftwcYtMKQK+onuhjGjHgk2wQ6A68mzN1XDiXE/emHLSD8LbS+xVdZBnQeC81zX5dnAf6jWZ2AiXSD1ud92vRxosUK8R8lWb8LodyainF2ZW56hulB5zkZ7treXV4mwkwihlkvQUZ9GpTT29Cu4hhtzxaF94+Kf2j/LhAvCaFvkZBisqlB55wBzpqkxleYcIXpj98x6NsApKGj32k74R9We549EHIKPAoBPWR7HAhMDtVRzAF3Y86Fo7bjobUALlWuE1SltqEe2ai675eKyN23mxivhSwnY/Ssva/rqaYDnXMhatB5GRNdbpkD9YyrJP8jifxEYf0rtTrxgpDuGqvxBaYDvQZd5gE0UblLSOTvvu0/ROf+UKS6r3nF3P/DFv7lzi3BLMIuNBXongc6Xw/CjRY8IjfGcMtwDALB4edtne8UzsfBjsCCsDyEt9kGHX4kK9YUoFc/0GUUEZ6y6ImZKYbzxkUDHP6ekEqgAoXzCdJ3QetC6F/OqPraEYYHvT63Sw8Qr4MJDmz0txbmpzLchrKoodLvcWPCboXy8RV7394dAO8NWYZGGG5o0PmpDLdP45dBSLBgyn7s1cL6stoOhvLEOQWNfh9DBHlEodwS+GhjCH3sVEODXutpfAyE0y0MedPKqIPSjFZHglDm573bGoVxSzoZ74USdObg3uPxG/Sah7qMZuY5tqjZiDIMaNZh/yKV1qgobsGYaxzK/eAT6ud262o40MtzuyUw8bNWj+Q/vgAiDAg67/GvPVJTGJ9YcXfu/x6EipD5mO7rbzjQnQ7fU02H+Rl7Z5iA7csN2ctwniiowJ+2SJYRCuOWlUcEbAuVj+mEU4LZnlavlNf8Of0iJlxls3HvYzSDmFFAflR1xNRRYdzSMof3ARgcmiUB6m2YiM653SJAWGCXlP0nVx/D3WITcodfbdGQrhBuMX37Q/jgjHFq9NoI3+1Mbdy+yJxy1Xpq+xrJoBiH7zP48/404yRFcIuzpv0h/Lk0Q4Be+0indAB3GuW88pCfj66JAYYKNreV1BDhGz/aMkAh3DJpgotD6GMdeR20sIPOTA+AEGnDtP3/D3EYYrwFI97iR1uSPY907a0wbknyQ54Q+pijdlfXlLCC7nk8tQ+Ip9hllf1X9uMeZjzQaYN/p3t6RyuMW457qC6pcVJYQdekuBsEzbbRvOnqWvdwajcjuWBE7f4tIBS1+nRYQb9VALdAjtD6mEZ6bNhAr3usQ3cGXalGHZCaY6ShInouJAPr/fjowOq56SerET3RgHNIHy6SxHFhA12S81b/33222mW8gycI7Ne706TxTEXyiUqjEG9PLjQKC+iexzqkADxVAX7sGsm5aYY60jn69qKvGfjAj7ZMrf1reieF83Gqc4F2Vtm27LigC9JmAohUQ35MkbWxGGk0owg8z58Snxl3qiE9XjqL0D5FyLoectA5FwKEqRbdNcbvixkTjOaPUTVFG0C8o9XtgZxZ/Vh6P0X0r9HBaaH0LU3jhpCDXhOXNhKEripd/1ltKzDm8CPtY43kj5QLCcJd/ty7JU0+G8wHNUyu9NC+JamFHnQBTFHj3HwAjXS6LzeaUdG3FL3BoA/8+Oig2gNp96phbbYmyg5ppcBhiOiSQjubmWz1faoh/VKTt4Lg82MR6L7qJ9NGKbJ/1OFH2seC0CWUfhUW0NmnjyVgpxry5iZ6DPXM72C4l0Oif3/wK4Ae8+OjGjHWG7FNYetLd0QfhPgID6cTtSEHPfa2kkMkcD4IP6gI/stLQJtlyLpCi3wAAlv9aFO8YG1j1ZNpWQpzAJBnhNqnIhzespCDDgCRvy/ap2s4H8SH1Yr7z/dH58nl87olGC7buLGggVlMBnGNH+3qpBG/ryI7IEkODrFPNdDsw9VhAR0A4uYU5QG4CEC5muV/UtoAsS7RMNuItsXctP+/RHxNk5mtVqqA+KhmfurF9i7PQv62olYzv+PM4LWnhap+qtMpBLkJQAeF+Y9rNlFu6kYzimqNaFzN/LQHQXyfnx/XwfSXqPKiBykXPjsNav0z6Rm6ru8KUwR5LqrjwRtoHAL68EyL30ePufHAfzQhhhKwT5Xox67kugbOMarDRt1YdL8APev3y1TE99Uldfyo5qm0/nYCXery4rD5FGFmXXHHFZwb2JOPWr2qWDc/rQsLfhtApgroAICSSOHLCGZ91aYAwaDaZ1JfJKa23BLUCXiBWfw56sYDQdteqfbZ9E6S0S760P7vKBcyXH1Wt6DjRgYuCPPQrYy84eDVRH6VX/5H9J8u0EldHwqiz1RIB0DoUCudfzBsrUngqCPF0wF+ug1t1JgwE0IW1C3ouKh2YYeBAQVrYeqw2qdT/w5d3yek/p/69mnf1izoHJbTcfiZ5BgmDDOAX02uW5g6N2wR/ViHLO0WUVdTvwiw3dbPzS5hSJ/MiLnpUImRjaxdkPoHEB5BYE7RzSPiZZB4OXJOSWFrP1z1dKd2GsuxgngWA794N56YX4icUxLysqju6Y5XMXi5YSZqxtTIOcVLwwb6Med5OvU2EB4G7P28NANLomcXTzO6nTUL0y4j1pcClBDAry0E+COAtjLjOweL3V7hrfBRZAMAOBrrXeRwdCLm7hByMIBzAep3ggnnw6jZxeeEHPRnUt/iprtMhpmfdcFnxV5f8l1YQW9yntRLCFgOIMnWrJM4J+r6oo+Mbmj9wg49JGgdYNwdYRn0cPSsg3eH8jc9z3ZI0ZgOwGBHgDOwI4r1M9uyDhSIFA7Rs4rfBItTAXxgY9AJLBcGerU0GIqYVbI70hczmAi5AOoN2JPvRNVrfwr1zzoY04wG+dFo3LtOiAfDHtGPzTzroNUf6XgXE99vxA4LEe13RV5fMtcs9tY/l9yLWVtggFVmAKgj5ociDpU8Gup79/w8nHWyQyFARt11xydJnh4z89B/wg76saJiYYeBTLSEADvuH94gBZ8RM6Nkq5mMrnuu41BmfgjAOWExgLFBsH5LxOzDBWFp/8IOE5lolcGH6ZPIkuIh/tx6DNrbOfxUhrveVXUHg+4G4LYX6/RNJBWfRTP8ODIpzKp9NmUwBN0AxuUAXCEA/AOh4aGInJJ/h60GzoWoS+3wNRDcE00DlDFOiZx5aLlhQD+WGi5My5IO/Tkwhtssh38kKqfEtHuyVT+TnCocYhyAKwGcHUhfYaBKAOtY0gtR1xd/HvbJ7fnUsQCvM8fI8M7Ig4f6tDaqh+x929rnUi4H0VwAvWyCOjNodPSM4jfN3pCaxe3ThFeMkETnAhhITU9FtnYNpoCI/i0lvxVF2jtGeT+AcyFqO3bYSgY8Gvs42I6LmlG83pCgH1vwoA4zAfwRQHsbRPVSktppkTOK9llqBlvX11VTdrg3OagLJHcSjGQmigbgIkY0E/sIKJHAIUHaNm+D2B53w4FSQ65NLOowlYHF5hoA+iYyp3hAax6PpbDY+UxyTJ2LZgB0KxDiLXVDry8iPc5hdMv+OigZSuVLExLcPvdOAClms10yXxiTc2hTS/9ehMNImn24Omr6oSciHZE9mGk2CLss7E9n1MV6lzKHZ1JV+nW5dXeuGSEHAEG4zrCp+/HqpJr05PMFYTaYLg7XBBTUyY2QGznt0AMKL4OsO7zQfgCR+BTmfd6jwed0doqb0rKSyHBRpnZJWmfSvZNANBlAXyuVtiCaHjmtZLHCLMwD8VSGuz6q6ksA5t4yi+i6lvqTodPJhhdS+kkNlxHjNwycZgEf05l4fNTUw68o3MKnuiUd/gLmuyyQJ74ZOa3kUtOD/j+p1vPtO5KDzoGgocQYejTamzHFbyRgTMTUli+kKAUQ8sWp54Lk27DG25YNEV5HUktuVZp2gajyxfQkl8Pbn6TszUR9wegKYCiAaBOYX0+gsRFTS/6h0AthWfhCUjppjq9g0gW45rN3nB9x7aG3LQt6swO5NOU2Ah41S2RnwsSoaw69qhAMUV0eW/U+gIEWa9lfIq89fM+J/spSq9uR0YfmQ/BOk+wN7yLw2rqXkqcpDIOMAoPq46qWgnig9c4YwKCW9IGlQKdxaCRJc0xksgPAi7UvJc/nXOvdUjRMIbss5TGAJ1i0eae15BkNSz7EUbss5Q0CjzHZNLU6QkZNo2v31Cs0A+gLy9vfSkyPW7mNpIueEVNLdtsmoh+T7rsBQJXJEsyJDaLmw7pVHbsqPBXkrcB8jTvGedCWER0A6lekXM/MC01oeimBJkVcrW6/tQ3ylNsJ/IiFm+gD8MeIqw7PbcnLLZYFnRlUv7L92wCdZ0rzCQsiXYdvo3FoVNi2dtxT7gf4fusGcewB4+rIqw5vaflHLKz6Vcm9WPK3AKLMOZ74mpgnu68u3aEQbgHkS7tF1DuqlwEYZ9UozuBnIhvpPpp2xNNKX7K26le1u56ZFpq4CXXMuD8y/cg8Otdehx22KlVfmZRO0NYBfLY1ZzF8IEib457s316ElgedGVS3uv0bBIw2d7aGb3RgevSkI18prH8xmY9k0GoAyRZ04I9J0Fz3hCP/aMs5bLZ4R9qzLjXZ4fX9B+bf5EJnpud9wnl/3MSiI7ZP1dfBVd/Y7o8guhPWOimIAWwEaG7kpMObAxQobDLrr006n6X4JyxwS5GACkl4MFI78oxdF+tq1iT3J+aXCOhnoWblg7GGNLEiYvyh7wPsM/ZRw5r29zMj1zINIhSC8YjbcWSpXYDndckx9T7cQ+BbAThN3pzDAD4BYQsRv+keH7xFV1uBzrkQDdlJG47uYmMl7QfwmFsTS2icMc9pb3upCqpf024SNZ0Gm2Z4e4EyAv+47wBTHRGXMsRhBu9inXdGTS7bHyp7bLePGa+LS2qQri8B7m7B5lUAvJhZPh05oWKPVQBveLn9JQDnwsCHQv7Sbr4uckKZYXYTsuWGhY3rkk+VUm4BEGPRJuoA/knMy1zxSRvo4oIG803I0Bq53WjJuIeA001m/jvuK0tHtWWVXIEeINWvbX8piF+Hxc91J6CUgbUMejWCjmymcdCNbG/16pQOTk2fxowcEEz33D8DZezgU6KuCF1arkA/Eezr280B4ym7tJeAUgAbAH6zEa4PYscVHzYEHCuT4urddBkxXwnQKJh4kY2Yr3RfWbbOgGNvb9Wva/8EwLfYsOkM0FaA3yOiT1kXXwT6ls7x6m7vyyn9JMlRIB4JYBiACNNPpIRl7rGl1xh0kre3mEGNryQtZWCK7fsCKCPgKwA7wJzHJPLh07+PiK84SBfDrzqf1yXHeOHNYIgsJjoNzKcx4TQCkizWfbvdDehPk8uqFOhGdfD34Gg4kvgKQL9RvfGrOgJGMYiPAKgiiComrm1msogniQQmJBLQFUAHG/RNrWA52DWu4lsDl21KANCwLqkPC2xTPaHUeoh4ovt35WuMbKNDDdPRSCRwoZr2lPyodx43OuQK9P+dllXartRan3nHnVRmihNfFOgAqv4W2w5o2ba5SkpHtc3t840zyx4BCnQAbjhGMbHqC6WWaq90iAvo8qoysxis9hJvqs+HqF5Qalm2jlLSxYVRo0sPmMluFcWaNEgtxCm1QLU6aEzU70rzTDhB2Tyar0uOaXD5ytWkp3QC1TDx6MjfVLxnRuNt79w+t+8UUv2gdHxVCYFLnKMrPjRrA2zv4CyoN5iVKyv9mioIdJFzdNmnZm6EAp05C1CgKzWrUiI+3zW68muzN0SlrMRZyp+VmtEuFvql7ks8+VZojAKd0EX5tNLP9LFL+C6ji6sPW6VB6j46kKK6QOnHiZ9edkUnnGclyJvima3rc1DjWwkNMP+2wUptl5eZ73ZfUvmEkfZ6U6l7IPR6QjxcCnIl7BNSjHeOLvvEqg20Neg1Lm+Ek9Qyhb3FG1wuvpZGVpRauZW29nLN5XLBJ5Wv27Yex+uuC6out2Kq/nPZejGOWHcrb7dxLJcotgPkqkb3kVT3HewrAa6zS1ttDbrucNY52Ks83q4RnUSVAt0GinL6ahsb1eOv9i3dcECBbgtVVIPiGOp1XVtKQh60T5li5xn9XPi46ZgiJTvKIXbYpql2H2sBlIDQXnm97VTlGlG5W4FuEzHhABH6Kr+3nf5rl1trtk/dAYAIBcrnbTnyn9mqSlHjjV0m23jiewbfBaLTiXE5gAwFrR/DzrRJgW6vAd/GwjSgL3fWO+fQxWVVANYDuKPh39H9hBCXMGEUGIMAqKf9Tlyw1TpE5RZ7xTO7D/l7CQle1suM3BcE7CfQDMeIqreO25ZNHaJ9rrpzJDCYmIcAfCZAUQrsn/UT8JZ7hOcSBbrN1Phe7A4A2QY0zQvwQqfPeT+NKq9s/SQGh5fi+oMxGMT9wXQywH1sH/UZM1wjPItU6m6/Ov1zsLFAJ+ANXcftESOr/d6zrOlcsKovAHzxU/gbEZsB4pOFRG8W1BVMXQDuCqCLDSaBGme9c63dXFyB3lSofw7Q1Qax5kNivs95bvX7QWnqufABnjwAzZ42wpujOjb6RJIQlKQTEgWQCEmJJNgNZrfkXykFCJLAFwB0msFHe/3RNQ6bxTIlNHwQ05uA7eFMJpn5TSHEXOdQz0dm7cfaDyI7O6B9DRj3ASQiGmLmPlagt7VO3xxTAEbPEP9sPZjXsqDH3EOrt1uhH72boy9gprdgzGc0driGVfexo3+rt7F/1AbQ0akv+Nc3IMxxCi3NNbzmWqtADgDOoTWbiOiuEPZlyy/QE7atThXfRyPRhzHnMuPdIP7Ed8RYrwt6OWKIZ6fly6EPox8lptsMZNIPzqTqDOqLRgW6jcUM4f0wdvfR1ecAfCFKibCZQRt18m2MHFK3z2b9Sd4PY54HMN0gnj7TNaT6ebv6t1p1/38/IEjvh7yEgQf8+HgFgG0gbIOkz1jDx66zPTvt9NJEM/3JzNUzvB/FVgN8c5jNyXN6qxfb2b8V6D9N33V9qUMTY35ach6NTx4GVRHgAfgwgQ4wYz8J2uvV9N1RA+v2q95rHnbAc4t3S3QJEx4OVwbJxHc23Va08Vgod1QKhXxbokazoOUAEkLs4f90Dqq52PaTrnJBpVCp/rPYTE2XrwA4OUQ/WeNgvS8Nrt9r975Xt9eUQqaIszz5joaaM8F4FIAe9JQduFdBriK6UhjV+EnkWQTxPIBTgvQTbzsG1lxg5wVRFdGVwi7X2XWfOX6oGcCCZ4JwJMAPx5Q6WF6rIFcRXclA4vcQ44uIng3i2wEktfHrJAGjHQNr31I9q0BXMiLwnybF+UTDdGK+gYFufn7NPc6zav+ielOBrmR04NdB0ztHXSIFTSLwaACRLfzoK44za8eplF2BrmTCKK9Tw2+ZeAKAYQAifuVPP3L4akfRINSpXlOgK5kZ+o8R6dOih4LkSICGoOl+fDQIOxxexxAaVFWmeklJyYIpfsOXsdn8eXSq6o3j6/8ALt8RR3W6dGoAAAAldEVYdGRhdGU6Y3JlYXRlADIwMjMtMDEtMTZUMTM6MTQ6NTQrMDA6MDBiPjE4AAAAJXRFWHRkYXRlOm1vZGlmeQAyMDIzLTAxLTE2VDEzOjE0OjU0KzAwOjAwE2OJhAAAAABJRU5ErkJggg==;" vertex="1" parent="1">
          <mxGeometry x="266" y="645" width="67.31" height="70" as="geometry" />
        </mxCell>
      </root>
    </mxGraphModel>
  </diagram>
</mxfile>
